<svg width="100.000000" height="14.000000" viewBox="0 0 100 14" fill="none" xmlns="http://www.w3.org/2000/svg" xmlns:xlink="http://www.w3.org/1999/xlink">
	<desc>
			Created with Pixso.
	</desc>
	<defs/>
	<path id="LOGO" d="M0 14L0 0L2.49 0L8.65 4.54L8.74 4.54L14.91 0L17.4 0L17.4 14L14.42 14L14.42 3.91L10.2 6.89L10.2 14L7.22 14L7.22 6.89L2.97 3.91L2.97 14L0 14ZM20.2 14L20.2 0L23.17 0L23.17 14L20.2 14ZM25.96 14L25.96 0L28.98 0L38.4 10.06L38.4 0L41.38 0L41.38 14L38.36 14L28.94 3.91L28.94 14L25.96 14ZM44.16 14L44.16 0L47.14 0L47.14 14L44.16 14ZM49.93 14L49.93 0L52.43 0L58.59 4.54L58.68 4.54L64.84 0L67.34 0L67.34 14L64.36 14L64.36 3.91L60.13 6.89L60.13 14L57.16 14L57.16 6.89L52.91 3.91L52.91 14L49.93 14ZM69.02 14L75.01 0L79.61 0L85.6 14L82.36 14L81.1 11.04L73.52 11.04L72.26 14L69.02 14ZM87.28 14L87.28 0L90.26 0L90.26 11.45L100 11.45L100 14L87.28 14ZM74.6 8.49L80.02 8.49L77.43 2.44L77.19 2.44L74.6 8.49Z" fill="#0A224A" fill-opacity="1.000000" fill-rule="evenodd"/>
</svg>
